<?xml version="1.0" encoding="UTF-8" standalone="no"?>
<svg xmlns:dc="http://purl.org/dc/elements/1.1/" xmlns:cc="http://creativecommons.org/ns#" xmlns:rdf="http://www.w3.org/1999/02/22-rdf-syntax-ns#" xmlns:svg="http://www.w3.org/2000/svg" xmlns="http://www.w3.org/2000/svg" viewBox="0 0 888 888" height="888" width="888" xml:space="preserve" id="svg2" version="1.1">
  <metadata id="metadata8">
    <rdf:RDF>
      <cc:Work rdf:about="">
        <dc:format>image/svg+xml</dc:format>
        <dc:type rdf:resource="http://purl.org/dc/dcmitype/StillImage" />
      </cc:Work>
    </rdf:RDF>
  </metadata>
  <defs id="defs6">
    <clipPath id="clipPath20" clipPathUnits="userSpaceOnUse">
      <path id="path18" d="M 0,0 H 666 V 666 H 0 Z" />
    </clipPath>
  </defs>
  <g transform="matrix(1.3333333,0,0,-1.3333333,0,888)" id="g10">
    <path id="path12" style="fill:#ffffff;fill-opacity:1;fill-rule:nonzero;stroke:none" d="M 0,0 H 666 V 666 H 0 Z" />
    <g id="g14">
      <g clip-path="url(#clipPath20)" id="g16">
        <g transform="translate(-49.9761,670.9839)" id="g22">
          <path id="path24" style="fill:none;stroke:#231f20;stroke-width:20;stroke-linecap:butt;stroke-linejoin:miter;stroke-miterlimit:10;stroke-dasharray:none;stroke-opacity:1" d="m 0,0 246.976,-74.75 c 56.435,-213.045 45.763,-432.888 0,-463.572 L 0,-618.121 Z" />
        </g>
        <g transform="translate(49,435.4771)" id="g26">
          <path id="path28" style="fill:#231f20;fill-opacity:1;fill-rule:nonzero;stroke:none" d="m 0,0 h 264.72 c 43.436,0 5.051,-204.955 -32.324,-204.955 H 0 Z" />
        </g>
        <g transform="translate(49,435.4771)" id="g30">
          <path id="path32" style="fill:none;stroke:#ffffff;stroke-width:20;stroke-linecap:butt;stroke-linejoin:miter;stroke-miterlimit:10;stroke-dasharray:none;stroke-opacity:1" d="m 0,0 h 264.72 c 43.436,0 5.051,-204.955 -32.324,-204.955 H 0 Z" />
        </g>
        <g transform="translate(159.0957)" id="g34">
          <path id="path36" style="fill:#231f20;fill-opacity:1;fill-rule:nonzero;stroke:none" d="m 0,0 c 0,-87.865 -71.23,-159.095 -159.096,-159.095 -87.865,0 -159.095,71.23 -159.095,159.095 0,87.866 71.23,159.096 159.095,159.096 C -71.23,159.096 0,87.866 0,0" />
        </g>
        <g transform="translate(159.0957)" id="g38">
          <path id="path40" style="fill:none;stroke:#ffffff;stroke-width:20;stroke-linecap:butt;stroke-linejoin:miter;stroke-miterlimit:10;stroke-dasharray:none;stroke-opacity:1" d="m 0,0 c 0,-87.865 -71.23,-159.095 -159.096,-159.095 -87.865,0 -159.095,71.23 -159.095,159.095 0,87.866 71.23,159.096 159.095,159.096 C -71.23,159.096 0,87.866 0,0 Z" />
        </g>
        <g transform="translate(715.9766,670.9839)" id="g42">
          <path id="path44" style="fill:none;stroke:#231f20;stroke-width:20;stroke-linecap:butt;stroke-linejoin:miter;stroke-miterlimit:10;stroke-dasharray:none;stroke-opacity:1" d="m 0,0 -246.977,-74.75 c -56.435,-213.045 -45.762,-432.888 0,-463.572 L 0,-618.121 Z" />
        </g>
        <g transform="translate(617,435.4771)" id="g46">
          <path id="path48" style="fill:#231f20;fill-opacity:1;fill-rule:nonzero;stroke:none" d="m 0,0 h -264.721 c -43.435,0 -5.05,-204.955 32.325,-204.955 H 0 Z" />
        </g>
        <g transform="translate(617,435.4771)" id="g50">
          <path id="path52" style="fill:none;stroke:#ffffff;stroke-width:20;stroke-linecap:butt;stroke-linejoin:miter;stroke-miterlimit:10;stroke-dasharray:none;stroke-opacity:1" d="m 0,0 h -264.721 c -43.435,0 -5.05,-204.955 32.325,-204.955 H 0 Z" />
        </g>
        <g transform="translate(506.9043)" id="g54">
          <path id="path56" style="fill:#231f20;fill-opacity:1;fill-rule:nonzero;stroke:none" d="m 0,0 c 0,-87.865 71.23,-159.095 159.096,-159.095 87.865,0 159.095,71.23 159.095,159.095 0,87.866 -71.23,159.096 -159.095,159.096 C 71.23,159.096 0,87.866 0,0" />
        </g>
        <g transform="translate(506.9043)" id="g58">
          <path id="path60" style="fill:none;stroke:#ffffff;stroke-width:20;stroke-linecap:butt;stroke-linejoin:miter;stroke-miterlimit:10;stroke-dasharray:none;stroke-opacity:1" d="m 0,0 c 0,-87.865 71.23,-159.095 159.096,-159.095 87.865,0 159.095,71.23 159.095,159.095 0,87.866 -71.23,159.096 -159.095,159.096 C 71.23,159.096 0,87.866 0,0 Z" />
        </g>
      </g>
    </g>
  </g>
</svg>
